<svg xmlns:xlink="http://www.w3.org/1999/xlink" xmlns="http://www.w3.org/2000/svg" class="lazadaicon lazada-icon svgfont " aria-hidden="true" width="1024"  height="1024" ><defs><symbol id="lazadaicon_location" viewBox="0 0 1024 1024">
    <path d="M520.533333 264.533333c-42.666667 0-76.8 12.8-106.666666 42.666667s-42.666667 64-42.666667 106.666667 12.8 76.8 42.666667 106.666666 64 42.666667 106.666666 42.666667 76.8-12.8 106.666667-42.666667 42.666667-68.266667 42.666667-106.666666c0-42.666667-12.8-76.8-42.666667-106.666667s-68.266667-42.666667-106.666667-42.666667z m0 34.133334c34.133333 0 59.733333 8.533333 81.066667 34.133333 21.333333 21.333333 34.133333 51.2 34.133333 81.066667 0 34.133333-12.8 59.733333-34.133333 81.066666s-51.2 34.133333-81.066667 34.133334c-34.133333 0-59.733333-12.8-81.066666-34.133334s-34.133333-51.2-34.133334-81.066666c0-34.133333 12.8-59.733333 34.133334-81.066667s46.933333-34.133333 81.066666-34.133333z">
    </path>
    <path d="M729.6 187.733333c-59.733333-55.466667-128-85.333333-209.066667-85.333333-81.066667 0-153.6 29.866667-209.066666 85.333333-59.733333 55.466667-85.333333 128-85.333334 209.066667 0 55.466667 12.8 102.4 38.4 149.333333 0 0 4.266667 4.266667 4.266667 8.533334l230.4 358.4c8.533333 12.8 21.333333 12.8 29.866667 0l247.466666-362.666667c29.866667-46.933333 42.666667-98.133333 42.666667-153.6 0-81.066667-29.866667-153.6-89.6-209.066667z m-21.333333 21.333334c51.2 51.2 76.8 110.933333 76.8 183.466666 0 51.2-12.8 93.866667-34.133334 132.266667l-247.466666 362.666667h29.866666L298.666667 533.333333c0-4.266667-8.533333-8.533333-4.266667-8.533333-21.333333-38.4-34.133333-81.066667-34.133333-128 0-72.533333 25.6-132.266667 76.8-183.466667 51.2-51.2 110.933333-76.8 183.466666-76.8 72.533333 0 132.266667 21.333333 187.733334 72.533334z">
    </path>
  </symbol></defs><use xlink:href="#lazadaicon_location" fill="#212121"></use></svg>