<svg xmlns:xlink="http://www.w3.org/1999/xlink" xmlns="http://www.w3.org/2000/svg" class="lazadaicon lazada-icon svgfont " aria-hidden="true" width="1024"  height="1024" ><defs><symbol id="lazadaicon_fulfilledbyLazada" viewBox="0 0 1024 1024">
    <path d="M911.829333 510.762667c0-221.866667-179.2-401.066667-401.066666-401.066667s-401.066667 179.2-401.066667 401.066667 179.2 401.066667 401.066667 401.066666 401.066667-179.2 401.066666-401.066666m-42.666666 0c0 196.266667-157.866667 354.133333-354.133334 354.133333s-358.4-157.866667-358.4-354.133333 157.866667-354.133333 354.133334-354.133334 358.4 157.866667 358.4 354.133334" fill="#00374C"></path>
    <path d="M463.829333 369.962667h196.266667v-64h-196.266667v64z m-102.4 349.866666h72.533334v-132.266666h-72.533334v132.266666z" fill="#F07025"></path>
    <path d="M438.229333 493.696v-187.733333h-76.8v251.733333h200.533334v-64z" fill="#00374C"></path>
  </symbol></defs><use xlink:href="#lazadaicon_fulfilledbyLazada" fill="#757575"></use></svg>