<svg id="Layer_1" enable-background="new 0 0 32 32" height="512" viewBox="0 0 32 32" width="512" xmlns="http://www.w3.org/2000/svg"><g fill="rgb(0,0,0)"><path d="m16 .8c-8.4 0-15.2 6.8-15.2 15.2s6.8 15.2 15.2 15.2 15.2-6.8 15.2-15.2-6.8-15.2-15.2-15.2zm0 27.4c-6.7 0-12.2-5.5-12.2-12.2s5.5-12.2 12.2-12.2 12.2 5.5 12.2 12.2-5.5 12.2-12.2 12.2z"/><path d="m16.8 13.6h-1.6c-.3 0-.5.2-.5.5v9.1c0 .3.2.5.5.5h1.6c.3 0 .5-.2.5-.5v-9.1c0-.3-.2-.5-.5-.5z"/><path d="m14.7 8.8c-.4.4-.5.8-.5 1.3s.2 1 .5 1.3c.3.4.8.6 1.3.6s1-.2 1.3-.5.5-.8.5-1.3-.2-1-.5-1.3c-.7-.8-1.9-.8-2.6-.1z"/></g></svg>