<svg xmlns:xlink="http://www.w3.org/1999/xlink" xmlns="http://www.w3.org/2000/svg" class="lazadaicon lazada-icon svgfont " aria-hidden="true" width="1024"  height="1024" ><defs><symbol id="lazadaicon_shipping" viewBox="0 0 1024 1024">
    <path d="M576 819.2h-341.333333l8.533333-34.133333h307.2l170.666667-588.8h34.133333l-179.2 622.933333zM332.8 196.266667h341.333333l-157.866666 541.866666h-341.333334L332.8 196.266667z m516.266667-51.2H174.933333c-34.133333 0-64 29.866667-64 68.266666v102.4c0 38.4 29.866667 68.266667 64 68.266667h8.533334l12.8-51.2h-21.333334c-8.533333 0-17.066667-8.533333-17.066666-17.066667V213.333333c0-8.533333 8.533333-17.066667 17.066666-17.066666h106.666667l-170.666667 588.8h85.333334l-25.6 85.333333h443.733333L810.666667 196.266667h42.666666c8.533333 0 17.066667 8.533333 17.066667 17.066666v102.4c0 8.533333-8.533333 17.066667-17.066667 17.066667h-42.666666L797.866667 384h51.2c34.133333 0 64-29.866667 64-68.266667V213.333333c0-38.4-29.866667-68.266667-64-68.266666zM362.666667 588.8l8.533333-29.866667h-4.266667c-25.6-4.266667-46.933333-17.066667-59.733333-34.133333-4.266667-4.266667-4.266667-8.533333-4.266667-12.8l42.666667-12.8c4.266667 4.266667 17.066667 12.8 38.4 12.8h4.266667l21.333333-64h-4.266667c-25.6-4.266667-42.666667-12.8-55.466666-21.333333 0 0-4.266667 0-4.266667-4.266667 0 0 0-4.266667-4.266667-4.266667-12.8-4.266667-17.066667-21.333333-12.8-34.133333 12.8-42.666667 68.266667-59.733333 110.933334-64h4.266666l8.533334-29.866667h38.4l-8.533334 29.866667h4.266667c29.866667 4.266667 55.466667 17.066667 64 34.133333 4.266667 4.266667 4.266667 8.533333 4.266667 12.8l-38.4 12.8c-4.266667-4.266667-21.333333-12.8-42.666667-17.066666H469.333333l-21.333333 64h4.266667c34.133333 4.266667 55.466667 17.066667 59.733333 21.333333l4.266667 4.266667v4.266666c8.533333 12.8 12.8 25.6 8.533333 42.666667-12.8 38.4-68.266667 59.733333-115.2 64h-4.266667l-8.533333 25.6h-34.133333z m59.733333-221.866667c-34.133333 4.266667-51.2 17.066667-55.466667 29.866667 0 8.533333 17.066667 17.066667 42.666667 21.333333h4.266667l12.8-55.466666-4.266667 4.266666z m0 149.333334h4.266667c34.133333-4.266667 59.733333-21.333333 59.733333-34.133334 0-8.533333-21.333333-17.066667-46.933333-21.333333h-4.266667l-12.8 55.466667z">
    </path>
  </symbol></defs><use xlink:href="#lazadaicon_shipping" fill="#757575"></use></svg>