<svg xmlns:xlink="http://www.w3.org/1999/xlink" xmlns="http://www.w3.org/2000/svg" class="lazadaicon lazada-icon svgfont " aria-hidden="true" width="1024"  height="1024" ><defs><symbol id="lazadaicon_standard" viewBox="0 0 1024 1024">
    <path d="M601.6 268.8h-68.266667V196.266667h68.266667v72.533333z m332.8 529.066667V128H234.666667c-8.533333 0-12.8 4.266667-21.333334 8.533333-8.533333 8.533333-8.533333 25.6 4.266667 34.133334l230.4 200.533333-162.133333 166.4L170.666667 435.2c-8.533333-8.533333-25.6-8.533333-34.133334 4.266667-8.533333 8.533333-8.533333 25.6 4.266667 34.133333l68.266667 59.733333v273.066667H426.666667l17.066666 34.133333c0 4.266667 12.8 25.6 34.133334 34.133334 4.266667 0 8.533333 4.266667 17.066666 4.266666s17.066667-4.266667 29.866667-8.533333l12.8-4.266667c4.266667 4.266667 12.8 8.533333 17.066667 12.8 4.266667 4.266667 8.533333 4.266667 17.066666 4.266667s21.333333-4.266667 34.133334-8.533333l12.8-4.266667c4.266667 4.266667 12.8 8.533333 17.066666 12.8 4.266667 0 8.533333 4.266667 17.066667 4.266667s21.333333-4.266667 34.133333-8.533334l17.066667-12.8c4.266667 4.266667 8.533333 4.266667 17.066667 8.533334 4.266667 0 8.533333 4.266667 12.8 4.266666 8.533333 0 17.066667-4.266667 29.866666-8.533333 8.533333-4.266667 12.8-17.066667 4.266667-25.6-4.266667-8.533333-17.066667-12.8-29.866667-4.266667l-4.266666 4.266667c-4.266667 0-4.266667-4.266667-4.266667-8.533333l-51.2-106.666667c-4.266667-8.533333-17.066667-17.066667-29.866667-8.533333-8.533333 4.266667-17.066667 17.066667-8.533333 25.6l42.666667 93.866666-17.066667 8.533334c-4.266667 4.266667-8.533333 4.266667-12.8 4.266666-4.266667 0-4.266667-4.266667-8.533333-8.533333l-38.4-85.333333c-8.533333-34.133333-21.333333-38.4-29.866667-34.133334-8.533333 4.266667-17.066667 17.066667-12.8 25.6l29.866667 68.266667-12.8 8.533333c-4.266667 4.266667-12.8 4.266667-17.066667 4.266667-4.266667-4.266667-8.533333-4.266667-8.533333-8.533333l-21.333334-55.466667c-4.266667-8.533333-17.066667-17.066667-29.866666-12.8-8.533333 4.266667-17.066667 17.066667-12.8 25.6l17.066666 38.4-12.8 4.266667c-4.266667 4.266667-8.533333 4.266667-12.8 4.266666-4.266667 0-4.266667-4.266667-4.266666-4.266666l-38.4-81.066667v-4.266667l-72.533334-157.866666-29.866666 29.866666 64 145.066667H256v-179.2l17.066667 17.066667c4.266667 4.266667 8.533333 4.266667 17.066666 4.266666 4.266667 0 12.8-4.266667 17.066667-4.266666l196.266667-200.533334c8.533333-8.533333 4.266667-25.6-4.266667-34.133333L294.4 179.2h187.733333V298.666667h162.133334V179.2h243.2v584.533333h-106.666667l-68.266667-140.8 55.466667 17.066667c4.266667 0 29.866667 4.266667 55.466667-8.533333 8.533333-4.266667 25.6-21.333333 29.866666-46.933334v-4.266666c4.266667-8.533333-4.266667-17.066667-8.533333-21.333334l-196.266667-102.4h-4.266666-4.266667l-110.933333-17.066666-34.133334 29.866666 136.533334 21.333334 179.2 93.866666c-4.266667 4.266667-4.266667 12.8-8.533334 17.066667-4.266667 4.266667-17.066667 4.266667-21.333333 4.266667l-89.6-25.6-8.533333-21.333334c-4.266667-8.533333-17.066667-17.066667-29.866667-8.533333-8.533333 4.266667-17.066667 17.066667-8.533333 25.6l25.6 46.933333 68.266666 140.8 21.333334 34.133334h174.933333z">
    </path>
  </symbol></defs><use xlink:href="#lazadaicon_standard" fill="#757575"></use></svg>