<svg xmlns:xlink="http://www.w3.org/1999/xlink" xmlns="http://www.w3.org/2000/svg" class="lazadaicon lazada-icon svgfont " aria-hidden="true" width="1024"  height="1024" ><defs><symbol id="lazadaicon_nowarranty" viewBox="0 0 1024 1024">
    <path d="M298.666667 648.533333l-29.866667 34.133334C153.6 490.666667 170.666667 256 170.666667 251.733333c0-4.266667 4.266667-12.8 8.533333-17.066666 4.266667-4.266667 12.8-4.266667 17.066667-4.266667 217.6 25.6 285.866667-85.333333 285.866666-85.333333 4.266667-8.533333 12.8-12.8 21.333334-12.8s17.066667 4.266667 21.333333 8.533333c4.266667 4.266667 38.4 59.733333 140.8 81.066667l-34.133333 38.4c-68.266667-17.066667-106.666667-51.2-128-72.533334-34.133333 38.4-119.466667 102.4-285.866667 89.6-4.266667 59.733333 4.266667 226.133333 81.066667 371.2z m537.6-401.066666v4.266666c0 4.266667 34.133333 482.133333-320 631.466667h-8.533334H494.933333c-55.466667-21.333333-98.133333-51.2-136.533333-85.333333l29.866667-34.133334c34.133333 29.866667 68.266667 55.466667 115.2 76.8C763.733333 725.333333 789.333333 409.6 793.6 298.666667l42.666667-51.2zM814.933333 128l38.4 34.133333L226.133333 883.2l-38.4-34.133333L814.933333 128z">
    </path>
  </symbol></defs><use xlink:href="#lazadaicon_nowarranty" fill="#757575"></use></svg>