<?xml version="1.0" encoding="utf-8"?>
<!-- Generator: Adobe Illustrator 28.1.0, SVG Export Plug-In . SVG Version: 6.00 Build 0)  -->
<svg version="1.1" id="Layer_1" xmlns="http://www.w3.org/2000/svg" xmlns:xlink="http://www.w3.org/1999/xlink" x="0px" y="0px"
	 viewBox="0 0 450.6 382.8" style="enable-background:new 0 0 450.6 382.8;" xml:space="preserve">
<path d="M375,85.8H142.2c-9.2,0-16.7-7.5-16.7-16.7l0,0c0-9.2,7.5-16.7,16.7-16.7H375c9.2,0,16.7,7.5,16.7,16.7l0,0
	C391.6,78.3,384.2,85.8,375,85.8z"/>
<path d="M375,200.7H44.7c-9.2,0-16.7-7.5-16.7-16.7l0,0c0-9.2,7.5-16.7,16.7-16.7H375c9.2,0,16.7,7.5,16.7,16.7l0,0
	C391.6,193.2,384.2,200.7,375,200.7z"/>
<path d="M375,315.6H216.6c-9.2,0-16.7-7.5-16.7-16.7l0,0c0-9.2,7.5-16.7,16.7-16.7H375c9.2,0,16.7,7.5,16.7,16.7l0,0
	C391.6,308.2,384.2,315.6,375,315.6z"/>
</svg>
