<?xml version="1.0" encoding="utf-8"?>
<!-- Generator: Adobe Illustrator 28.1.0, SVG Export Plug-In . SVG Version: 6.00 Build 0)  -->
<svg version="1.1" id="Layer_1" xmlns="http://www.w3.org/2000/svg" xmlns:xlink="http://www.w3.org/1999/xlink" x="0px" y="0px"
	 viewBox="0 0 512 512" style="enable-background:new 0 0 512 512;" xml:space="preserve">
<style type="text/css">
	.st0{fill:#FFFFFF;}
</style>
<path class="st0" d="M21.3,21.3C9.6,21.3,0,30.9,0,42.7S9.6,64,21.3,64h38c6.4,0,12,4.1,14,10.1l70.3,211c3.1,9.4,3.5,19.5,1.1,29
	l-5.8,23.2c-8.5,34,18,67.9,53,67.9h256c11.8,0,21.3-9.6,21.3-21.3c0-11.8-9.6-21.3-21.3-21.3H192c-8.3,0-13.6-6.8-11.6-14.9
	l4.4-17.4c1.5-6.1,7-10.3,13.3-10.3h228.7c9.2,0,17.3-5.9,20.2-14.6l56.9-170.7c4.6-13.8-5.7-28.1-20.2-28.1H139.8
	c-6.4,0-12-4.1-14-10.1l-20.2-60.6c-2.9-8.7-11.1-14.6-20.2-14.6L21.3,21.3z M170.7,426.7c-23.6,0-42.7,19.1-42.7,42.7
	s19.1,42.7,42.7,42.7s42.7-19.1,42.7-42.7S194.2,426.7,170.7,426.7z M426.7,426.7c-23.6,0-42.7,19.1-42.7,42.7s19.1,42.7,42.7,42.7
	c23.6,0,42.7-19.1,42.7-42.7S450.2,426.7,426.7,426.7z"/>
</svg>
