<?xml version="1.0" encoding="utf-8"?>
<!-- Generator: Adobe Illustrator 28.1.0, SVG Export Plug-In . SVG Version: 6.00 Build 0)  -->
<svg version="1.1" id="Layer_1" xmlns="http://www.w3.org/2000/svg" xmlns:xlink="http://www.w3.org/1999/xlink" x="0px" y="0px"
	 viewBox="0 0 512 512" style="enable-background:new 0 0 512 512;" xml:space="preserve">
<style type="text/css">
	.st0{fill:#FFFFFF;}
</style>
<g id="Layer_1_00000038399297854959060900000003474181245566974883_">
	<path class="st0" d="M464,128H48c-17.7,0-32-14.3-32-32s14.3-32,32-32h416c17.7,0,32,14.3,32,32S481.7,128,464,128z"/>
	<path class="st0" d="M464,448H48c-17.7,0-32-14.3-32-32s14.3-32,32-32h416c17.7,0,32,14.3,32,32S481.7,448,464,448z"/>
	<path class="st0" d="M464,288H48c-17.7,0-32-14.3-32-32s14.3-32,32-32h416c17.7,0,32,14.3,32,32S481.7,288,464,288z"/>
</g>
</svg>
