<?xml version="1.0" encoding="utf-8"?>
<!-- Generator: Adobe Illustrator 28.1.0, SVG Export Plug-In . SVG Version: 6.00 Build 0)  -->
<svg version="1.1" id="Capa_1" xmlns="http://www.w3.org/2000/svg" xmlns:xlink="http://www.w3.org/1999/xlink" x="0px" y="0px"
	 viewBox="0 0 512 512" style="enable-background:new 0 0 512 512;" xml:space="preserve">
<style type="text/css">
	.st0{fill:#FFFFFF;}
</style>
<g>
	<g>
		<path class="st0" d="M256,110.1c-52.4,0-95.1,42.6-95.1,95.1s42.6,95.1,95.1,95.1s95.1-42.6,95.1-95.1S308.4,110.1,256,110.1z
			 M256,260.1c-30.3,0-55-24.7-55-55s24.7-55,55-55s55,24.7,55,55S286.3,260.1,256,260.1z"/>
	</g>
</g>
<g>
	<g>
		<path class="st0" d="M256,0C142.9,0,50.9,92,50.9,205.1v5.7c0,57.2,32.8,123.9,97.5,198.1c46.9,53.8,93.1,91.4,95.1,92.9L256,512
			l12.6-10.2c1.9-1.6,48.2-39.1,95.1-92.9c64.7-74.3,97.5-140.9,97.5-198.1v-5.7C461.1,92,369.1,0,256,0z M421.1,210.8
			c0,96.7-124.6,213.7-165.1,249.2C215.4,424.5,90.9,307.4,90.9,210.8v-5.7C90.9,114.1,165,40,256,40s165.1,74.1,165.1,165.1
			L421.1,210.8L421.1,210.8z"/>
	</g>
</g>
</svg>
